# xmcd
#
# Track frame offsets:
#	150
#	8552
#	17125
#	24910
#	39122
#	45612
#	51882
#	70840
#	85447
#	93620
#	105205
#	112320
#	120595
#	128592
#	137987
#	147325
#	156385
#	164280
#	168337
#	175117
#	200132
#	229060
#	245605
#	252077
#	274100
#	279702
#	287685
#	295767
#	304240
#	307377
#	316735
#	321710
#	325327
#
# Disc length: 4438 seconds
#
# Revision: 3
# Processed by: cddbd v1.5.1PL0 Copyright (c) Steve Scherf et al.
# Submitted via: EasyCDDAExtractor 6.0.0.1
#
DISCID=e7115421
DTITLE=Glenn Gould - Bach-Partitas, Preludes and Fugues I
DYEAR=1900
DGENRE=Blues
TTITLE0=1 Praeludium
TTITLE1=2 Allemande
TTITLE2=3 Corrente
TTITLE3=4 Sarabande
TTITLE4=5-6 Menuet I-II
TTITLE5=7 Giga
TTITLE6=1 Sinfonia
TTITLE7=2 Allemande
TTITLE8=3 Courante
TTITLE9=4 Sarabande
TTITLE10=5 Rondeaux
TTITLE11=6 Capriccio
TTITLE12=1 Fantasia
TTITLE13=2 Allemande
TTITLE14=3 Corrente
TTITLE15=4 Sarabande
TTITLE16=5 Burlesca
TTITLE17=6 Scherzo
TTITLE18=7 Gigue
TTITLE19=1 Ouverture
TTITLE20=2 Allemande
TTITLE21=3 Courante
TTITLE22=4 Aria
TTITLE23=5 Sarabande
TTITLE24=6 Menuet
TTITLE25=7 Gigue
TTITLE26=1 Praeambulum
TTITLE27=2 Allemande
TTITLE28=3 Corrente
TTITLE29=4 Sarabande
TTITLE30=5 Tempo di Minuetta
TTITLE31=6 Passepied
TTITLE32=7 Gigue
EXTD=Glenn Gould, piano
EXTT0=
EXTT1=
EXTT2=
EXTT3=
EXTT4=
EXTT5=
EXTT6=
EXTT7=
EXTT8=
EXTT9=
EXTT10=
EXTT11=
EXTT12=
EXTT13=
EXTT14=
EXTT15=
EXTT16=
EXTT17=
EXTT18=
EXTT19=
EXTT20=
EXTT21=
EXTT22=
EXTT23=
EXTT24=
EXTT25=
EXTT26=
EXTT27=
EXTT28=
EXTT29=
EXTT30=
EXTT31=
EXTT32=
PLAYORDER=
